# xmcd
#
# Track frame offsets:
# 150
# 18297
# 36502
# 61445
# 82157
# 115482
# 149125
# 171935
# 195367
# 224180
# 248375
# 272532
#
# Disc length: 3978 seconds
#
# Revision: 1
# Processed by: cddbd v1.5.2PL0 Copyright (c) Steve Scherf et al.
# Submitted via: Easy CD Ripper v2.38
#
DISCID=b80f880c
DTITLE=Justin Timberlake - FutureSex/LoveSounds
DYEAR=2006
DGENRE=R&B
TTITLE0=FutureSexLoveSounds - FutureSex/Lovesounds
TTITLE1=Sexyback - SexyBack
TTITLE2=Sexy Ladies - Sexy Ladies
TTITLE3=My Love - My Love
TTITLE4=Lovestoned - LoveStoned
TTITLE5=What Goes Around... - What Goes Around...
TTITLE6=Chop Me Up - Chop Me Up
TTITLE7=Damn Girl - Damn Girl
TTITLE8=Summer Love - Summer Love
TTITLE9=Until The End of Time - Until The End Of Time
TTITLE10=Losing My Way - Losing My Way
TTITLE11=(Another Song) All Over Again - (Another Song) All Over Again
EXTD=
EXTT0=
EXTT1=
EXTT2=
EXTT3=
EXTT4=
EXTT5=
EXTT6=
EXTT7=
EXTT8=
EXTT9=
EXTT10=
EXTT11=
PLAYORDER=
